<svg width="22" height="22" viewBox="0 0 22 22" fill="none" xmlns="http://www.w3.org/2000/svg">
<path d="M6.11111 0C2.73656 0 0 2.73656 0 6.11111V15.8889C0 19.2634 2.73656 22 6.11111 22H15.8889C19.2634 22 22 19.2634 22 15.8889V6.11111C22 2.73656 19.2634 0 15.8889 0H6.11111ZM18.3333 2.44444C19.008 2.44444 19.5556 2.992 19.5556 3.66667C19.5556 4.34133 19.008 4.88889 18.3333 4.88889C17.6587 4.88889 17.1111 4.34133 17.1111 3.66667C17.1111 2.992 17.6587 2.44444 18.3333 2.44444ZM11 4.88889C14.3746 4.88889 17.1111 7.62544 17.1111 11C17.1111 14.3746 14.3746 17.1111 11 17.1111C7.62544 17.1111 4.88889 14.3746 4.88889 11C4.88889 7.62544 7.62544 4.88889 11 4.88889ZM11 7.33333C10.0275 7.33333 9.09491 7.71964 8.40727 8.40727C7.71964 9.09491 7.33333 10.0275 7.33333 11C7.33333 11.9725 7.71964 12.9051 8.40727 13.5927C9.09491 14.2804 10.0275 14.6667 11 14.6667C11.9725 14.6667 12.9051 14.2804 13.5927 13.5927C14.2804 12.9051 14.6667 11.9725 14.6667 11C14.6667 10.0275 14.2804 9.09491 13.5927 8.40727C12.9051 7.71964 11.9725 7.33333 11 7.33333Z" fill="#5F3316"/>
</svg>
