<svg width="22" height="22" viewBox="0 0 22 22" fill="none" xmlns="http://www.w3.org/2000/svg">
<path d="M19.8323 14.9903L16.7461 14.6351C15.999 14.5494 15.2642 14.8065 14.7376 15.3332L12.4719 17.5989C10.734 16.7171 9.15786 15.5671 7.796 14.204C6.43292 12.8421 5.28293 11.266 4.40115 9.52812L6.66683 7.26243C7.19345 6.73582 7.45064 6.001 7.36491 5.25394L7.00975 2.16771C6.86278 0.930768 5.8218 0 4.57261 0H2.45389C1.06998 0 -0.0812297 1.15121 0.00449889 2.53512C0.329043 7.76333 2.58125 12.4649 6.05816 15.9418C9.53507 19.4187 14.2367 21.671 19.4649 21.9955C20.8488 22.0812 22 20.93 22 19.5461V17.4274C22 16.1782 21.0692 15.1372 19.8323 14.9903Z" fill="#887559"/>
</svg>
