<svg width="22" height="22" viewBox="0 0 22 22" fill="none" xmlns="http://www.w3.org/2000/svg">
<path fill-rule="evenodd" clip-rule="evenodd" d="M0.562933 2.69513C0 3.77882 0 5.20255 0 8.05V13.95C0 16.7975 0 18.2212 0.562933 19.3049C1.03731 20.2181 1.78191 20.9627 2.69513 21.4371C3.77882 22 5.20255 22 8.05 22H13.95C16.7975 22 18.2212 22 19.3049 21.4371C20.2181 20.9627 20.9627 20.2181 21.4371 19.3049C22 18.2212 22 16.7975 22 13.95V8.05C22 5.20255 22 3.77882 21.4371 2.69513C20.9627 1.78191 20.2181 1.03731 19.3049 0.562933C18.2212 0 16.7975 0 13.95 0H8.05C5.20255 0 3.77882 0 2.69513 0.562933C1.78191 1.03731 1.03731 1.78191 0.562933 2.69513ZM7.96566 4.84211C7.96566 3.27232 9.32403 2 11 2C12.676 2 14.0343 3.27232 14.0343 4.84211V10.5263C14.0343 12.0961 12.676 13.3684 11 13.3684C9.32403 13.3684 7.96566 12.0961 7.96566 10.5263V4.84211ZM4.01272 11.6032C3.9136 11.0357 4.40728 10.5263 5.02022 10.5263C5.52088 10.5263 5.93191 10.8707 6.01586 11.3331C6.4255 13.5641 8.50072 15.2632 11 15.2632C13.4993 15.2632 15.5745 13.5641 15.9841 11.3331C16.0681 10.8707 16.4801 10.5263 16.9798 10.5263C17.5927 10.5263 18.0864 11.0357 17.9873 11.6032C17.4918 14.445 15.0649 16.6738 12.0114 17.0839V19.0526C12.0114 19.5756 11.5583 20 11 20C10.4417 20 9.98855 19.5756 9.98855 19.0526V17.0839C6.93513 16.6738 4.50821 14.445 4.01272 11.6032Z" fill="#5F3316"/>
</svg>
