<svg width="22" height="20" viewBox="0 0 22 20" fill="none" xmlns="http://www.w3.org/2000/svg">
<path d="M1.1 0C0.808262 0 0.528472 0.117063 0.322183 0.325437C0.115892 0.533811 0 0.816426 0 1.11111V7.32856C0 7.89967 0.42833 8.37649 0.99043 8.43316L16.5 10L0.99043 11.5668C0.42833 11.6235 0 12.1003 0 12.6714V18.8889C0 19.1836 0.115892 19.4662 0.322183 19.6746C0.528472 19.8829 0.808262 20 1.1 20C1.31001 20.0005 1.51577 19.9402 1.69297 19.8264C1.69369 19.8257 1.6944 19.8249 1.69512 19.8242L21.2738 11.0482L21.2717 11.0438C21.4846 10.9666 21.6688 10.825 21.7991 10.6382C21.9295 10.4514 21.9996 10.2285 22 10C21.9996 9.77147 21.9295 9.54863 21.7991 9.36183C21.6688 9.17504 21.4846 9.03338 21.2717 8.95616L21.2738 8.95182L1.68008 0.169271C1.50613 0.0592981 1.30521 0.000665438 1.1 0Z" fill="#887559"/>
</svg>
