<svg width="20" height="22" viewBox="0 0 20 22" fill="none" xmlns="http://www.w3.org/2000/svg">
<path d="M4.07769 0C3.63102 0 3.30559 0.420784 3.42448 0.846484L4.8329 5.87813H4.83073V7.99219C4.83073 8.38159 5.1492 8.69688 5.54253 8.69688C5.93587 8.69688 6.25651 8.38159 6.25651 7.99219V5.87813L7.68012 0.848633C7.80123 0.421833 7.47686 0 7.02908 0C6.71241 0 6.43714 0.217319 6.36936 0.524219L5.88976 2.6748C5.72198 3.4558 5.61418 4.01089 5.56641 4.34199H5.523C5.453 3.87999 5.34632 3.32076 5.19965 2.66406L4.73741 0.528516C4.67075 0.219416 4.39658 0 4.07769 0ZM9.57899 2.21934C9.09677 2.21934 8.70812 2.31263 8.41146 2.50293C8.11479 2.69213 7.89825 2.99487 7.75825 3.40957C7.61936 3.82427 7.54991 4.37322 7.54991 5.05742V5.98125C7.54991 6.65775 7.60998 7.19952 7.73221 7.60762C7.85443 8.01572 8.06069 8.31636 8.35069 8.50996C8.64069 8.70356 9.03972 8.8 9.54861 8.8C10.0442 8.8 10.437 8.70456 10.727 8.51426C11.0159 8.32396 11.2253 8.02546 11.3542 7.61406C11.4831 7.20266 11.5473 6.65885 11.5473 5.98125V5.05742C11.5473 4.37432 11.482 3.82742 11.3498 3.41602C11.2176 3.00572 11.0072 2.70298 10.7205 2.50938C10.4338 2.31578 10.0534 2.21934 9.57899 2.21934ZM13.0208 2.34395C12.6219 2.34395 12.2982 2.66233 12.2982 3.05723V7.08984C12.2982 7.67724 12.3998 8.10925 12.602 8.38535C12.8042 8.66145 13.1183 8.8 13.5438 8.8C14.1572 8.8 14.6184 8.50544 14.9262 7.91914H14.9588L15.0022 8.1877C15.0488 8.4803 15.3033 8.69688 15.6033 8.69688C15.94 8.69688 16.2131 8.42646 16.2131 8.09316V3.05723C16.2131 2.66233 15.8904 2.34395 15.4926 2.34395C15.0937 2.34395 14.77 2.66233 14.77 3.05723V7.39062C14.7144 7.50833 14.6294 7.60476 14.5139 7.68066C14.3983 7.75766 14.277 7.79453 14.1515 7.79453C14.0048 7.79453 13.9001 7.73506 13.8368 7.61406C13.7735 7.49306 13.7435 7.28986 13.7435 7.00605V3.05723C13.7435 2.66233 13.4197 2.34395 13.0208 2.34395ZM9.54861 3.20332C9.75083 3.20332 9.89396 3.30794 9.97396 3.51914C10.054 3.72924 10.0933 4.06381 10.0933 4.52031V6.49902C10.0933 6.96872 10.054 7.30843 9.97396 7.51523C9.89396 7.72203 9.75189 7.82566 9.55078 7.82676C9.34856 7.82676 9.20861 7.72203 9.13194 7.51523C9.05417 7.30843 9.01476 6.96872 9.01476 6.49902V4.52031C9.01476 4.06491 9.05628 3.73034 9.13628 3.51914C9.21628 3.30904 9.35306 3.20332 9.54861 3.20332ZM2.22222 9.9C1 9.9 0 10.89 0 12.1V19.8C0 21.01 1 22 2.22222 22H17.7778C19 22 20 21.01 20 19.8V12.1C20 10.89 19 9.9 17.7778 9.9H2.22222ZM10.6402 12.1C10.9646 12.1 11.2283 12.361 11.2283 12.6822V14.9252H11.237C11.3425 14.7206 11.4939 14.5565 11.6884 14.4311C11.8828 14.3057 12.0933 14.2441 12.3177 14.2441C12.6066 14.2441 12.8325 14.3201 12.997 14.4719C13.1614 14.6237 13.2817 14.8689 13.355 15.2066C13.4284 15.5454 13.4635 16.0154 13.4635 16.616V17.4646H13.4657C13.4657 18.2643 13.3672 18.8502 13.1727 19.2264C12.9783 19.6026 12.6757 19.7914 12.2635 19.7914C12.0335 19.7914 11.8252 19.7391 11.6363 19.6346C11.4474 19.5301 11.3054 19.3864 11.2109 19.2049H11.1849L11.1654 19.2844C11.1043 19.5352 10.8763 19.7119 10.6163 19.7119C10.3052 19.7119 10.0543 19.4613 10.0543 19.1533V12.6822C10.0543 12.361 10.3157 12.1 10.6402 12.1ZM3.25304 12.3729H5.88542C6.15653 12.3729 6.37587 12.5911 6.37587 12.8584C6.37587 13.1268 6.15542 13.3439 5.88542 13.3439H5.16493V19.1232C5.16493 19.4488 4.89814 19.7119 4.56814 19.7119C4.23814 19.7119 3.97135 19.4478 3.97135 19.1211V13.3439H3.25304C2.98193 13.3439 2.76259 13.1257 2.76259 12.8584C2.76259 12.59 2.98304 12.3729 3.25304 12.3729ZM15.6619 14.2463C16.0797 14.2463 16.401 14.3222 16.6254 14.474C16.8488 14.6258 17.0063 14.8629 17.0985 15.183C17.1896 15.5042 17.2352 15.9475 17.2352 16.5129V16.8244H17.2374C17.2374 17.1599 16.9622 17.4324 16.6233 17.4324H15.1975V17.7053C15.1975 18.0496 15.2068 18.3071 15.2279 18.4787C15.249 18.6503 15.2915 18.7766 15.3559 18.8547C15.4203 18.9339 15.5198 18.9729 15.6554 18.9729C15.8376 18.9729 15.963 18.902 16.0308 18.7623C16.0608 18.6996 16.0847 18.6164 16.1024 18.5152C16.148 18.2578 16.386 18.0766 16.6493 18.092C16.9649 18.1107 17.1998 18.4017 17.1376 18.7086C17.0754 19.0133 16.9615 19.2754 16.7904 19.4283C16.5159 19.6736 16.1283 19.7957 15.6272 19.7957C15.0261 19.7957 14.6064 19.6079 14.3642 19.235C14.1219 18.8621 14.0017 18.2854 14.0017 17.5033V16.5666C14.0017 15.7614 14.1272 15.1734 14.3772 14.8027C14.6272 14.432 15.0552 14.2463 15.6619 14.2463ZM6.62326 14.3494C6.95993 14.3494 7.23307 14.6198 7.23307 14.9531V18.2875C7.23307 18.5262 7.25786 18.6976 7.3112 18.7988C7.36453 18.9011 7.45368 18.9514 7.57813 18.9514C7.68368 18.9514 7.78528 18.9196 7.88194 18.8547C7.97972 18.7909 8.05118 18.7088 8.09896 18.6098V14.9531C8.09896 14.6198 8.3721 14.3494 8.70877 14.3494C9.04543 14.3494 9.31858 14.6198 9.31858 14.9531V19.2027C9.31858 19.4843 9.0887 19.7119 8.80425 19.7119C8.55092 19.7119 8.33427 19.5297 8.29427 19.2822L8.25738 19.0566H8.23134C7.97245 19.5527 7.58269 19.8 7.0638 19.8C6.7038 19.8 6.44064 19.683 6.26953 19.4498C6.09842 19.2166 6.01129 18.8512 6.01128 18.3563V14.9531C6.01128 14.6198 6.2866 14.3494 6.62326 14.3494ZM15.638 15.0627C15.508 15.0627 15.4116 15.1018 15.3494 15.1766C15.2872 15.2525 15.2457 15.3766 15.2257 15.5482C15.2046 15.7198 15.1953 15.9805 15.1953 16.3303V16.7148H16.0872V16.3303C16.0872 15.986 16.0759 15.7264 16.0525 15.5482C16.0303 15.37 15.9867 15.2449 15.9245 15.1723C15.8623 15.0997 15.768 15.0627 15.638 15.0627ZM11.7687 15.1014C11.6509 15.1014 11.5431 15.1475 11.4431 15.241C11.3431 15.3345 11.2716 15.4546 11.2305 15.5998V18.6441C11.2838 18.7376 11.3532 18.8074 11.4388 18.8547C11.5244 18.9009 11.6155 18.9256 11.7166 18.9256C11.8466 18.9256 11.9481 18.8794 12.0247 18.7859C12.1014 18.6924 12.1574 18.5355 12.1897 18.3133C12.2219 18.0922 12.2374 17.7843 12.2374 17.3938V16.7041C12.2374 16.2839 12.225 15.9607 12.1984 15.733C12.1717 15.5053 12.124 15.341 12.0573 15.2453C11.9895 15.1496 11.8931 15.1014 11.7687 15.1014Z" fill="#5F3316"/>
</svg>
